<svg xmlns="http://www.w3.org/2000/svg" viewBox="0 0 64 64" width="64" height="64">
  <ellipse cx="32" cy="56" rx="14" ry="3" fill="#000" opacity="0.1"/>
  <path d="M12 12c8-4 16-4 24 0v36c-8-4-16-4-24 0V12z" fill="#a855f7"/>
  <path d="M12 12c8-4 16-4 24 0" fill="none" stroke="#9333ea" stroke-width="2"/>
  <path d="M36 12c8-4 16-4 24 0v36c-8-4-16-4-24 0V12z" fill="#9333ea"/>
  <path d="M36 12c8-4 16-4 24 0" fill="none" stroke="#7c3aed" stroke-width="2"/>
  <path d="M12 20c8 2 16 2 24 0" stroke="#7c3aed" stroke-width="1" opacity="0.5"/>
  <path d="M36 20c8 2 16 2 24 0" stroke="#7c3aed" stroke-width="1" opacity="0.5"/>
  <path d="M12 28c8 2 16 2 24 0" stroke="#7c3aed" stroke-width="1" opacity="0.5"/>
  <path d="M36 28c8 2 16 2 24 0" stroke="#7c3aed" stroke-width="1" opacity="0.5"/>
</svg>