<svg xmlns="http://www.w3.org/2000/svg" viewBox="0 0 64 64" width="64" height="64">
  <!-- Shadow -->
  <ellipse cx="32" cy="56" rx="16" ry="3" fill="#000" opacity="0.1"/>
  
  <!-- Body -->
  <ellipse cx="32" cy="44" rx="16" ry="10" fill="#10b981"/>
  
  <!-- Head -->
  <ellipse cx="32" cy="26" rx="14" ry="12" fill="#10b981"/>
  
  <!-- Ears -->
  <ellipse cx="18" cy="24" rx="5" ry="8" fill="#059669"/>
  <ellipse cx="46" cy="24" rx="5" ry="8" fill="#059669"/>
  
  <!-- Snout -->
  <ellipse cx="32" cy="30" rx="6" ry="4" fill="#6ee7b7"/>
  
  <!-- Nose -->
  <ellipse cx="32" cy="28" rx="3" ry="2" fill="#1f2937"/>
  
  <!-- Eyes -->
  <circle cx="26" cy="24" r="3" fill="#1f2937"/>
  <circle cx="38" cy="24" r="3" fill="#1f2937"/>
  <circle cx="27" cy="23" r="1" fill="#fff"/>
  <circle cx="39" cy="23" r="1" fill="#fff"/>
  
  <!-- Mouth -->
  <path d="M30 32q2 2 4 0" stroke="#1f2937" stroke-width="1.5" stroke-linecap="round" fill="none"/>
  
  <!-- Tail -->
  <path d="M44 42q10-4 8-12" stroke="#10b981" stroke-width="4" stroke-linecap="round" fill="none"/>
  
  <!-- Paws -->
  <ellipse cx="24" cy="52" rx="3" ry="2" fill="#059669"/>
  <ellipse cx="40" cy="52" rx="3" ry="2" fill="#059669"/>
</svg>