<svg xmlns="http://www.w3.org/2000/svg" viewBox="0 0 64 64" width="64" height="64">
  <ellipse cx="32" cy="58" rx="14" ry="3" fill="#000" opacity="0.1"/>
  <path d="M32 4c-6 12-12 20-12 32 0 8 4 14 10 18-4-6-4-14-2-20 2 8 8 14 16 14 10 0 16-8 16-18 0-10-4-18-10-26 2 10-2 20-8 26 4-8 2-18-6-24 4 8 2 18-4 24 8-4 14-14 12-26z" fill="#f97316"/>
  <path d="M32 24c-4 6-6 14-4 22 2 8 8 12 14 12 8 0 12-8 10-16-4 8-12 10-18 4 6-2 10-10 8-18-4 8-12 6-16-2 2 8 0 14-6 16 6 4 14 0 16-8z" fill="#ef4444"/>
</svg>