<svg xmlns="http://www.w3.org/2000/svg" viewBox="0 0 64 64" width="64" height="64">
  <ellipse cx="32" cy="56" rx="12" ry="3" fill="#000" opacity="0.1"/>
  <circle cx="32" cy="24" r="12" fill="#fca5a5"/>
  <path d="M20 52v-16c0-6 5-10 12-10s12 4 12 10v16" fill="#a855f7"/>
  <path d="M16 24l-6-8 8 2M48 24l6-8-8 2" fill="#a855f7"/>
  <circle cx="28" cy="22" r="2" fill="#1f2937"/>
  <circle cx="36" cy="22" r="2" fill="#1f2937"/>
  <path d="M30 28q2 1 4 0" stroke="#f472b6" stroke-width="1.5" stroke-linecap="round" fill="none"/>
  <path d="M32 8v-4" stroke="#eab308" stroke-width="3" stroke-linecap="round"/>
  <circle cx="32" cy="6" r="3" fill="#eab308"/>
  <path d="M20 18l-4-6M44 18l4-6" fill="#a855f7"/>
</svg>