<svg xmlns="http://www.w3.org/2000/svg" viewBox="0 0 64 64" width="64" height="64">
  <ellipse cx="32" cy="56" rx="12" ry="3" fill="#000" opacity="0.1"/>
  <ellipse cx="22" cy="16" rx="5" ry="12" fill="#fca5a5"/>
  <ellipse cx="22" cy="16" rx="3" ry="8" fill="#ffe4e6"/>
  <ellipse cx="42" cy="16" rx="5" ry="12" fill="#fca5a5"/>
  <ellipse cx="42" cy="16" rx="3" ry="8" fill="#ffe4e6"/>
  <ellipse cx="32" cy="36" rx="14" ry="12" fill="#fca5a5"/>
  <circle cx="26" cy="34" r="3" fill="#1f2937"/>
  <circle cx="38" cy="34" r="3" fill="#1f2937"/>
  <circle cx="27" cy="33" r="1" fill="#fff"/>
  <circle cx="39" cy="33" r="1" fill="#fff"/>
  <ellipse cx="32" cy="40" rx="3" ry="2" fill="#f472b6"/>
  <ellipse cx="24" cy="52" rx="3" ry="4" fill="#fca5a5"/>
  <ellipse cx="32" cy="52" rx="3" ry="4" fill="#fca5a5"/>
  <ellipse cx="40" cy="52" rx="3" ry="4" fill="#fca5a5"/>
  <circle cx="18" cy="36" r="2" fill="#ffe4e6"/>
  <circle cx="46" cy="36" r="2" fill="#ffe4e6"/>
</svg>