<svg xmlns="http://www.w3.org/2000/svg" viewBox="0 0 64 64" width="64" height="64">
  <!-- Rays -->
  <g stroke="#f59e0b" stroke-width="4" stroke-linecap="round">
    <line x1="32" y1="6" x2="32" y2="12"/>
    <line x1="32" y1="52" x2="32" y2="58"/>
    <line x1="6" y1="32" x2="12" y2="32"/>
    <line x1="52" y1="32" x2="58" y2="32"/>
    <line x1="13.6" y1="13.6" x2="17.8" y2="17.8"/>
    <line x1="46.2" y1="46.2" x2="50.4" y2="50.4"/>
    <line x1="13.6" y1="50.4" x2="17.8" y2="46.2"/>
    <line x1="46.2" y1="17.8" x2="50.4" y2="13.6"/>
  </g>
  
  <!-- Main body -->
  <circle cx="32" cy="32" r="16" fill="#fbbf24"/>
  
  <!-- Highlight -->
  <ellipse cx="26" cy="26" rx="4" ry="4" fill="#fde68a" opacity="0.6"/>
  
  <!-- Face -->
  <circle cx="26" cy="32" r="2" fill="#1f2937"/>
  <circle cx="38" cy="32" r="2" fill="#1f2937"/>
  <circle cx="27" cy="31" r="0.7" fill="#fff"/>
  <circle cx="39" cy="31" r="0.7" fill="#fff"/>
  
  <!-- Smile -->
  <path d="M28 38q4 4 8 0" stroke="#1f2937" stroke-width="2" stroke-linecap="round" fill="none"/>
  
  <!-- Cheeks -->
  <circle cx="22" cy="34" r="2" fill="#fca5a5" opacity="0.6"/>
  <circle cx="42" cy="34" r="2" fill="#fca5a5" opacity="0.6"/>
</svg>